<mxfile host="65bd71144e">
    <diagram name="Page-1" id="wPqT0zMJG0IzRhpzcinO">
        <mxGraphModel dx="2149" dy="2806" grid="1" gridSize="10" guides="1" tooltips="1" connect="1" arrows="1" fold="1" page="1" pageScale="1" pageWidth="850" pageHeight="1100" math="0" shadow="0">
            <root>
                <mxCell id="0"/>
                <mxCell id="1" parent="0"/>
                <mxCell id="HsoYf9CAcILcmxsVDy11-4" value="" style="edgeStyle=orthogonalEdgeStyle;rounded=0;orthogonalLoop=1;jettySize=auto;html=1;" parent="1" source="HsoYf9CAcILcmxsVDy11-1" target="HsoYf9CAcILcmxsVDy11-3" edge="1">
                    <mxGeometry relative="1" as="geometry"/>
                </mxCell>
                <mxCell id="HsoYf9CAcILcmxsVDy11-1" value="Start App" style="strokeWidth=2;html=1;shape=mxgraph.flowchart.start_1;whiteSpace=wrap;" parent="1" vertex="1">
                    <mxGeometry x="650" y="95" width="100" height="60" as="geometry"/>
                </mxCell>
                <mxCell id="HsoYf9CAcILcmxsVDy11-18" value="" style="edgeStyle=orthogonalEdgeStyle;rounded=0;orthogonalLoop=1;jettySize=auto;html=1;exitX=0.5;exitY=1;exitDx=0;exitDy=0;" parent="1" source="HsoYf9CAcILcmxsVDy11-117" target="HsoYf9CAcILcmxsVDy11-13" edge="1">
                    <mxGeometry relative="1" as="geometry">
                        <mxPoint x="865" y="260" as="sourcePoint"/>
                    </mxGeometry>
                </mxCell>
                <mxCell id="HsoYf9CAcILcmxsVDy11-9" value="" style="edgeStyle=orthogonalEdgeStyle;rounded=0;orthogonalLoop=1;jettySize=auto;html=1;entryX=0;entryY=0.5;entryDx=0;entryDy=0;" parent="1" source="HsoYf9CAcILcmxsVDy11-3" target="HsoYf9CAcILcmxsVDy11-117" edge="1">
                    <mxGeometry relative="1" as="geometry">
                        <mxPoint x="840" y="245" as="targetPoint"/>
                    </mxGeometry>
                </mxCell>
                <mxCell id="HsoYf9CAcILcmxsVDy11-11" value="" style="edgeStyle=orthogonalEdgeStyle;rounded=0;orthogonalLoop=1;jettySize=auto;html=1;" parent="1" source="HsoYf9CAcILcmxsVDy11-3" target="HsoYf9CAcILcmxsVDy11-5" edge="1">
                    <mxGeometry relative="1" as="geometry"/>
                </mxCell>
                <mxCell id="HsoYf9CAcILcmxsVDy11-3" value="Logged in" style="strokeWidth=2;html=1;shape=mxgraph.flowchart.decision;whiteSpace=wrap;" parent="1" vertex="1">
                    <mxGeometry x="650" y="195" width="100" height="100" as="geometry"/>
                </mxCell>
                <mxCell id="HsoYf9CAcILcmxsVDy11-17" value="" style="edgeStyle=orthogonalEdgeStyle;rounded=0;orthogonalLoop=1;jettySize=auto;html=1;" parent="1" source="HsoYf9CAcILcmxsVDy11-5" target="HsoYf9CAcILcmxsVDy11-15" edge="1">
                    <mxGeometry relative="1" as="geometry"/>
                </mxCell>
                <mxCell id="HsoYf9CAcILcmxsVDy11-5" value="Fail" style="rounded=0;html=1;fillColor=#f8cecc;strokeColor=#b85450;strokeWidth=1;fontColor=#000000;" parent="1" vertex="1">
                    <mxGeometry x="575" y="230" width="50" height="30" as="geometry"/>
                </mxCell>
                <mxCell id="HsoYf9CAcILcmxsVDy11-49" value="" style="edgeStyle=orthogonalEdgeStyle;rounded=0;orthogonalLoop=1;jettySize=auto;html=1;" parent="1" source="HsoYf9CAcILcmxsVDy11-13" target="HsoYf9CAcILcmxsVDy11-48" edge="1">
                    <mxGeometry relative="1" as="geometry"/>
                </mxCell>
                <mxCell id="HsoYf9CAcILcmxsVDy11-51" value="" style="edgeStyle=orthogonalEdgeStyle;rounded=0;orthogonalLoop=1;jettySize=auto;html=1;" parent="1" source="HsoYf9CAcILcmxsVDy11-13" target="HsoYf9CAcILcmxsVDy11-48" edge="1">
                    <mxGeometry relative="1" as="geometry"/>
                </mxCell>
                <mxCell id="HsoYf9CAcILcmxsVDy11-54" value="" style="edgeStyle=orthogonalEdgeStyle;rounded=0;orthogonalLoop=1;jettySize=auto;html=1;" parent="1" source="HsoYf9CAcILcmxsVDy11-13" target="HsoYf9CAcILcmxsVDy11-53" edge="1">
                    <mxGeometry relative="1" as="geometry"/>
                </mxCell>
                <mxCell id="HsoYf9CAcILcmxsVDy11-13" value="Dashboard" style="whiteSpace=wrap;html=1;strokeWidth=2;" parent="1" vertex="1">
                    <mxGeometry x="805" y="375" width="120" height="60" as="geometry"/>
                </mxCell>
                <mxCell id="HsoYf9CAcILcmxsVDy11-39" value="" style="edgeStyle=orthogonalEdgeStyle;rounded=0;orthogonalLoop=1;jettySize=auto;html=1;" parent="1" source="HsoYf9CAcILcmxsVDy11-15" target="HsoYf9CAcILcmxsVDy11-32" edge="1">
                    <mxGeometry relative="1" as="geometry"/>
                </mxCell>
                <mxCell id="HsoYf9CAcILcmxsVDy11-106" style="edgeStyle=orthogonalEdgeStyle;rounded=0;orthogonalLoop=1;jettySize=auto;html=1;entryX=0.5;entryY=0;entryDx=0;entryDy=0;" parent="1" source="HsoYf9CAcILcmxsVDy11-15" target="HsoYf9CAcILcmxsVDy11-105" edge="1">
                    <mxGeometry relative="1" as="geometry"/>
                </mxCell>
                <mxCell id="HsoYf9CAcILcmxsVDy11-15" value="Login / Register " style="whiteSpace=wrap;html=1;strokeWidth=2;" parent="1" vertex="1">
                    <mxGeometry x="385" y="215" width="120" height="60" as="geometry"/>
                </mxCell>
                <mxCell id="HsoYf9CAcILcmxsVDy11-24" value="" style="edgeStyle=orthogonalEdgeStyle;rounded=0;orthogonalLoop=1;jettySize=auto;html=1;exitX=1;exitY=0.5;exitDx=0;exitDy=0;" parent="1" source="HsoYf9CAcILcmxsVDy11-105" target="HsoYf9CAcILcmxsVDy11-21" edge="1">
                    <mxGeometry relative="1" as="geometry">
                        <mxPoint x="585" y="326.29999999999995" as="sourcePoint"/>
                    </mxGeometry>
                </mxCell>
                <mxCell id="HsoYf9CAcILcmxsVDy11-107" style="edgeStyle=orthogonalEdgeStyle;rounded=0;orthogonalLoop=1;jettySize=auto;html=1;entryX=0;entryY=0.5;entryDx=0;entryDy=0;exitX=0.5;exitY=1;exitDx=0;exitDy=0;" parent="1" source="HsoYf9CAcILcmxsVDy11-21" target="HsoYf9CAcILcmxsVDy11-13" edge="1">
                    <mxGeometry relative="1" as="geometry"/>
                </mxCell>
                <mxCell id="HsoYf9CAcILcmxsVDy11-21" value="Success" style="rounded=0;whiteSpace=wrap;html=1;fillColor=#d5e8d4;strokeColor=#82b366;fontColor=#000000;" parent="1" vertex="1">
                    <mxGeometry x="640" y="341.25" width="60" height="30" as="geometry"/>
                </mxCell>
                <mxCell id="HsoYf9CAcILcmxsVDy11-35" value="" style="edgeStyle=orthogonalEdgeStyle;rounded=0;orthogonalLoop=1;jettySize=auto;html=1;exitX=0.5;exitY=1;exitDx=0;exitDy=0;" parent="1" source="HsoYf9CAcILcmxsVDy11-32" target="HsoYf9CAcILcmxsVDy11-33" edge="1">
                    <mxGeometry relative="1" as="geometry"/>
                </mxCell>
                <mxCell id="HsoYf9CAcILcmxsVDy11-110" style="edgeStyle=orthogonalEdgeStyle;rounded=0;orthogonalLoop=1;jettySize=auto;html=1;entryX=0.5;entryY=0;entryDx=0;entryDy=0;" parent="1" source="HsoYf9CAcILcmxsVDy11-32" target="HsoYf9CAcILcmxsVDy11-5" edge="1">
                    <mxGeometry relative="1" as="geometry">
                        <Array as="points">
                            <mxPoint x="380" y="415"/>
                            <mxPoint x="320" y="415"/>
                            <mxPoint x="320" y="185"/>
                            <mxPoint x="600" y="185"/>
                        </Array>
                    </mxGeometry>
                </mxCell>
                <mxCell id="HsoYf9CAcILcmxsVDy11-32" value="Registration&lt;br&gt;Checker" style="rounded=1;whiteSpace=wrap;html=1;absoluteArcSize=1;arcSize=14;strokeWidth=2;" parent="1" vertex="1">
                    <mxGeometry x="340" y="315" width="80" height="82.5" as="geometry"/>
                </mxCell>
                <mxCell id="HsoYf9CAcILcmxsVDy11-45" value="" style="edgeStyle=orthogonalEdgeStyle;rounded=0;orthogonalLoop=1;jettySize=auto;html=1;" parent="1" source="HsoYf9CAcILcmxsVDy11-33" target="HsoYf9CAcILcmxsVDy11-44" edge="1">
                    <mxGeometry relative="1" as="geometry"/>
                </mxCell>
                <mxCell id="HsoYf9CAcILcmxsVDy11-112" style="edgeStyle=orthogonalEdgeStyle;rounded=0;orthogonalLoop=1;jettySize=auto;html=1;entryX=0;entryY=0.5;entryDx=0;entryDy=0;" parent="1" source="HsoYf9CAcILcmxsVDy11-33" target="HsoYf9CAcILcmxsVDy11-13" edge="1">
                    <mxGeometry relative="1" as="geometry">
                        <Array as="points">
                            <mxPoint x="620" y="460"/>
                            <mxPoint x="620" y="405"/>
                        </Array>
                    </mxGeometry>
                </mxCell>
                <mxCell id="HsoYf9CAcILcmxsVDy11-33" value="Success" style="rounded=0;whiteSpace=wrap;html=1;fillColor=#d5e8d4;strokeColor=#82b366;fontColor=#000000;" parent="1" vertex="1">
                    <mxGeometry x="350" y="445" width="60" height="30" as="geometry"/>
                </mxCell>
                <mxCell id="HsoYf9CAcILcmxsVDy11-42" value="&lt;br&gt;To&lt;br&gt;&amp;nbsp;Firebase" style="strokeWidth=2;html=1;shape=mxgraph.flowchart.database;whiteSpace=wrap;" parent="1" vertex="1">
                    <mxGeometry x="590" y="985" width="80" height="80" as="geometry"/>
                </mxCell>
                <mxCell id="HsoYf9CAcILcmxsVDy11-46" style="edgeStyle=orthogonalEdgeStyle;rounded=0;orthogonalLoop=1;jettySize=auto;html=1;entryX=0.5;entryY=0;entryDx=0;entryDy=0;entryPerimeter=0;exitX=0.5;exitY=1;exitDx=0;exitDy=0;" parent="1" source="HsoYf9CAcILcmxsVDy11-44" target="HsoYf9CAcILcmxsVDy11-42" edge="1">
                    <mxGeometry relative="1" as="geometry"/>
                </mxCell>
                <mxCell id="HsoYf9CAcILcmxsVDy11-44" value="Registration&lt;br&gt;Information" style="shape=parallelogram;perimeter=parallelogramPerimeter;whiteSpace=wrap;html=1;fixedSize=1;rounded=0;" parent="1" vertex="1">
                    <mxGeometry x="320" y="550" width="120" height="60" as="geometry"/>
                </mxCell>
                <mxCell id="HsoYf9CAcILcmxsVDy11-62" value="" style="edgeStyle=orthogonalEdgeStyle;rounded=0;orthogonalLoop=1;jettySize=auto;html=1;" parent="1" source="HsoYf9CAcILcmxsVDy11-48" target="HsoYf9CAcILcmxsVDy11-58" edge="1">
                    <mxGeometry relative="1" as="geometry"/>
                </mxCell>
                <mxCell id="HsoYf9CAcILcmxsVDy11-48" value="Add Vehicle&amp;nbsp;Popup" style="whiteSpace=wrap;html=1;strokeWidth=2;" parent="1" vertex="1">
                    <mxGeometry x="720" y="475" width="120" height="60" as="geometry"/>
                </mxCell>
                <mxCell id="HsoYf9CAcILcmxsVDy11-83" value="" style="edgeStyle=orthogonalEdgeStyle;rounded=0;orthogonalLoop=1;jettySize=auto;html=1;exitX=0.5;exitY=1;exitDx=0;exitDy=0;" parent="1" source="HsoYf9CAcILcmxsVDy11-53" target="HsoYf9CAcILcmxsVDy11-74" edge="1">
                    <mxGeometry relative="1" as="geometry"/>
                </mxCell>
                <mxCell id="HsoYf9CAcILcmxsVDy11-97" value="" style="edgeStyle=orthogonalEdgeStyle;rounded=0;orthogonalLoop=1;jettySize=auto;html=1;exitX=0.5;exitY=1;exitDx=0;exitDy=0;" parent="1" source="HsoYf9CAcILcmxsVDy11-53" target="HsoYf9CAcILcmxsVDy11-96" edge="1">
                    <mxGeometry relative="1" as="geometry"/>
                </mxCell>
                <mxCell id="HsoYf9CAcILcmxsVDy11-53" value="Vehicle" style="whiteSpace=wrap;html=1;strokeWidth=2;" parent="1" vertex="1">
                    <mxGeometry x="1070" y="375" width="120" height="60" as="geometry"/>
                </mxCell>
                <mxCell id="HsoYf9CAcILcmxsVDy11-64" style="edgeStyle=orthogonalEdgeStyle;rounded=0;orthogonalLoop=1;jettySize=auto;html=1;entryX=1;entryY=0.5;entryDx=0;entryDy=0;" parent="1" source="HsoYf9CAcILcmxsVDy11-55" target="HsoYf9CAcILcmxsVDy11-48" edge="1">
                    <mxGeometry relative="1" as="geometry"/>
                </mxCell>
                <mxCell id="HsoYf9CAcILcmxsVDy11-55" value="Fail" style="rounded=0;whiteSpace=wrap;html=1;fillColor=#f8cecc;strokeColor=#b85450;fontColor=#000000;" parent="1" vertex="1">
                    <mxGeometry x="830" y="666.25" width="60" height="30" as="geometry"/>
                </mxCell>
                <mxCell id="HsoYf9CAcILcmxsVDy11-56" value="" style="edgeStyle=orthogonalEdgeStyle;rounded=0;orthogonalLoop=1;jettySize=auto;html=1;" parent="1" source="HsoYf9CAcILcmxsVDy11-58" target="HsoYf9CAcILcmxsVDy11-60" edge="1">
                    <mxGeometry relative="1" as="geometry"/>
                </mxCell>
                <mxCell id="HsoYf9CAcILcmxsVDy11-57" style="edgeStyle=orthogonalEdgeStyle;rounded=0;orthogonalLoop=1;jettySize=auto;html=1;entryX=0;entryY=0.5;entryDx=0;entryDy=0;exitX=0.5;exitY=1;exitDx=0;exitDy=0;" parent="1" source="HsoYf9CAcILcmxsVDy11-58" target="HsoYf9CAcILcmxsVDy11-55" edge="1">
                    <mxGeometry relative="1" as="geometry"/>
                </mxCell>
                <mxCell id="HsoYf9CAcILcmxsVDy11-58" value="Vehicle Information&lt;br&gt;Checker" style="rounded=1;whiteSpace=wrap;html=1;absoluteArcSize=1;arcSize=14;strokeWidth=2;" parent="1" vertex="1">
                    <mxGeometry x="740" y="565" width="80" height="82.5" as="geometry"/>
                </mxCell>
                <mxCell id="HsoYf9CAcILcmxsVDy11-59" value="" style="edgeStyle=orthogonalEdgeStyle;rounded=0;orthogonalLoop=1;jettySize=auto;html=1;" parent="1" source="HsoYf9CAcILcmxsVDy11-60" target="HsoYf9CAcILcmxsVDy11-61" edge="1">
                    <mxGeometry relative="1" as="geometry"/>
                </mxCell>
                <mxCell id="HsoYf9CAcILcmxsVDy11-60" value="Success" style="rounded=0;whiteSpace=wrap;html=1;fillColor=#d5e8d4;strokeColor=#82b366;fontColor=#000000;" parent="1" vertex="1">
                    <mxGeometry x="590" y="591.25" width="60" height="30" as="geometry"/>
                </mxCell>
                <mxCell id="HsoYf9CAcILcmxsVDy11-84" style="edgeStyle=orthogonalEdgeStyle;rounded=0;orthogonalLoop=1;jettySize=auto;html=1;entryX=0.5;entryY=0;entryDx=0;entryDy=0;entryPerimeter=0;" parent="1" target="HsoYf9CAcILcmxsVDy11-42" edge="1">
                    <mxGeometry relative="1" as="geometry">
                        <mxPoint x="630" y="725" as="sourcePoint"/>
                    </mxGeometry>
                </mxCell>
                <mxCell id="HsoYf9CAcILcmxsVDy11-61" value="Vehicle&lt;br&gt;Information" style="shape=parallelogram;perimeter=parallelogramPerimeter;whiteSpace=wrap;html=1;fixedSize=1;rounded=0;" parent="1" vertex="1">
                    <mxGeometry x="560" y="666.25" width="120" height="60" as="geometry"/>
                </mxCell>
                <mxCell id="HsoYf9CAcILcmxsVDy11-73" value="" style="edgeStyle=orthogonalEdgeStyle;rounded=0;orthogonalLoop=1;jettySize=auto;html=1;" parent="1" source="HsoYf9CAcILcmxsVDy11-74" target="HsoYf9CAcILcmxsVDy11-79" edge="1">
                    <mxGeometry relative="1" as="geometry"/>
                </mxCell>
                <mxCell id="HsoYf9CAcILcmxsVDy11-74" value="Add Repair Popup" style="whiteSpace=wrap;html=1;strokeWidth=2;" parent="1" vertex="1">
                    <mxGeometry x="910" y="610" width="120" height="60" as="geometry"/>
                </mxCell>
                <mxCell id="HsoYf9CAcILcmxsVDy11-75" style="edgeStyle=orthogonalEdgeStyle;rounded=0;orthogonalLoop=1;jettySize=auto;html=1;entryX=1;entryY=0.5;entryDx=0;entryDy=0;exitX=0.5;exitY=0;exitDx=0;exitDy=0;" parent="1" source="HsoYf9CAcILcmxsVDy11-76" target="HsoYf9CAcILcmxsVDy11-74" edge="1">
                    <mxGeometry relative="1" as="geometry"/>
                </mxCell>
                <mxCell id="HsoYf9CAcILcmxsVDy11-76" value="Fail" style="rounded=0;whiteSpace=wrap;html=1;fillColor=#f8cecc;strokeColor=#b85450;fontColor=#000000;" parent="1" vertex="1">
                    <mxGeometry x="1050" y="770" width="60" height="30" as="geometry"/>
                </mxCell>
                <mxCell id="HsoYf9CAcILcmxsVDy11-77" value="" style="edgeStyle=orthogonalEdgeStyle;rounded=0;orthogonalLoop=1;jettySize=auto;html=1;" parent="1" source="HsoYf9CAcILcmxsVDy11-79" target="HsoYf9CAcILcmxsVDy11-81" edge="1">
                    <mxGeometry relative="1" as="geometry"/>
                </mxCell>
                <mxCell id="HsoYf9CAcILcmxsVDy11-78" style="edgeStyle=orthogonalEdgeStyle;rounded=0;orthogonalLoop=1;jettySize=auto;html=1;entryX=0;entryY=0.5;entryDx=0;entryDy=0;" parent="1" source="HsoYf9CAcILcmxsVDy11-79" target="HsoYf9CAcILcmxsVDy11-76" edge="1">
                    <mxGeometry relative="1" as="geometry"/>
                </mxCell>
                <mxCell id="HsoYf9CAcILcmxsVDy11-79" value="Repair Information&lt;br&gt;Checker" style="rounded=1;whiteSpace=wrap;html=1;absoluteArcSize=1;arcSize=14;strokeWidth=2;" parent="1" vertex="1">
                    <mxGeometry x="930" y="743.75" width="80" height="82.5" as="geometry"/>
                </mxCell>
                <mxCell id="HsoYf9CAcILcmxsVDy11-80" value="" style="edgeStyle=orthogonalEdgeStyle;rounded=0;orthogonalLoop=1;jettySize=auto;html=1;" parent="1" source="HsoYf9CAcILcmxsVDy11-81" target="HsoYf9CAcILcmxsVDy11-82" edge="1">
                    <mxGeometry relative="1" as="geometry"/>
                </mxCell>
                <mxCell id="HsoYf9CAcILcmxsVDy11-81" value="Success" style="rounded=0;whiteSpace=wrap;html=1;fillColor=#d5e8d4;strokeColor=#82b366;fontColor=#000000;" parent="1" vertex="1">
                    <mxGeometry x="820" y="770" width="60" height="30" as="geometry"/>
                </mxCell>
                <mxCell id="HsoYf9CAcILcmxsVDy11-116" style="edgeStyle=orthogonalEdgeStyle;rounded=0;orthogonalLoop=1;jettySize=auto;html=1;entryX=0.5;entryY=0;entryDx=0;entryDy=0;entryPerimeter=0;" parent="1" source="HsoYf9CAcILcmxsVDy11-82" target="HsoYf9CAcILcmxsVDy11-42" edge="1">
                    <mxGeometry relative="1" as="geometry"/>
                </mxCell>
                <mxCell id="HsoYf9CAcILcmxsVDy11-82" value="Repair &lt;br&gt;Information" style="shape=parallelogram;perimeter=parallelogramPerimeter;whiteSpace=wrap;html=1;fixedSize=1;rounded=0;" parent="1" vertex="1">
                    <mxGeometry x="680" y="755" width="120" height="60" as="geometry"/>
                </mxCell>
                <mxCell id="HsoYf9CAcILcmxsVDy11-86" value="" style="edgeStyle=orthogonalEdgeStyle;rounded=0;orthogonalLoop=1;jettySize=auto;html=1;" parent="1" source="HsoYf9CAcILcmxsVDy11-87" target="HsoYf9CAcILcmxsVDy11-92" edge="1">
                    <mxGeometry relative="1" as="geometry"/>
                </mxCell>
                <mxCell id="HsoYf9CAcILcmxsVDy11-87" value="Add Part Popup" style="whiteSpace=wrap;html=1;strokeWidth=2;" parent="1" vertex="1">
                    <mxGeometry x="1260" y="745" width="120" height="60" as="geometry"/>
                </mxCell>
                <mxCell id="HsoYf9CAcILcmxsVDy11-88" style="edgeStyle=orthogonalEdgeStyle;rounded=0;orthogonalLoop=1;jettySize=auto;html=1;entryX=1;entryY=0.5;entryDx=0;entryDy=0;" parent="1" source="HsoYf9CAcILcmxsVDy11-89" target="HsoYf9CAcILcmxsVDy11-87" edge="1">
                    <mxGeometry relative="1" as="geometry"/>
                </mxCell>
                <mxCell id="HsoYf9CAcILcmxsVDy11-89" value="Fail" style="rounded=0;whiteSpace=wrap;html=1;fillColor=#f8cecc;strokeColor=#b85450;fontColor=#000000;" parent="1" vertex="1">
                    <mxGeometry x="1370" y="936.25" width="60" height="30" as="geometry"/>
                </mxCell>
                <mxCell id="HsoYf9CAcILcmxsVDy11-90" value="" style="edgeStyle=orthogonalEdgeStyle;rounded=0;orthogonalLoop=1;jettySize=auto;html=1;" parent="1" source="HsoYf9CAcILcmxsVDy11-92" target="HsoYf9CAcILcmxsVDy11-94" edge="1">
                    <mxGeometry relative="1" as="geometry"/>
                </mxCell>
                <mxCell id="HsoYf9CAcILcmxsVDy11-91" style="edgeStyle=orthogonalEdgeStyle;rounded=0;orthogonalLoop=1;jettySize=auto;html=1;entryX=0;entryY=0.5;entryDx=0;entryDy=0;exitX=0.5;exitY=1;exitDx=0;exitDy=0;" parent="1" source="HsoYf9CAcILcmxsVDy11-92" target="HsoYf9CAcILcmxsVDy11-89" edge="1">
                    <mxGeometry relative="1" as="geometry"/>
                </mxCell>
                <mxCell id="HsoYf9CAcILcmxsVDy11-92" value="Part Information&lt;br&gt;Checker" style="rounded=1;whiteSpace=wrap;html=1;absoluteArcSize=1;arcSize=14;strokeWidth=2;" parent="1" vertex="1">
                    <mxGeometry x="1280" y="835" width="80" height="82.5" as="geometry"/>
                </mxCell>
                <mxCell id="HsoYf9CAcILcmxsVDy11-93" value="" style="edgeStyle=orthogonalEdgeStyle;rounded=0;orthogonalLoop=1;jettySize=auto;html=1;" parent="1" source="HsoYf9CAcILcmxsVDy11-94" target="HsoYf9CAcILcmxsVDy11-95" edge="1">
                    <mxGeometry relative="1" as="geometry"/>
                </mxCell>
                <mxCell id="HsoYf9CAcILcmxsVDy11-94" value="Success" style="rounded=0;whiteSpace=wrap;html=1;fillColor=#d5e8d4;strokeColor=#82b366;fontColor=#000000;" parent="1" vertex="1">
                    <mxGeometry x="1130" y="861.25" width="60" height="30" as="geometry"/>
                </mxCell>
                <mxCell id="HsoYf9CAcILcmxsVDy11-115" style="edgeStyle=orthogonalEdgeStyle;rounded=0;orthogonalLoop=1;jettySize=auto;html=1;entryX=0.5;entryY=0;entryDx=0;entryDy=0;entryPerimeter=0;" parent="1" source="HsoYf9CAcILcmxsVDy11-95" target="HsoYf9CAcILcmxsVDy11-42" edge="1">
                    <mxGeometry relative="1" as="geometry">
                        <mxPoint x="630" y="935" as="targetPoint"/>
                    </mxGeometry>
                </mxCell>
                <mxCell id="HsoYf9CAcILcmxsVDy11-95" value="Part&lt;br&gt;Information" style="shape=parallelogram;perimeter=parallelogramPerimeter;whiteSpace=wrap;html=1;fixedSize=1;rounded=0;" parent="1" vertex="1">
                    <mxGeometry x="940" y="846.25" width="120" height="60" as="geometry"/>
                </mxCell>
                <mxCell id="HsoYf9CAcILcmxsVDy11-113" value="" style="edgeStyle=orthogonalEdgeStyle;rounded=0;orthogonalLoop=1;jettySize=auto;html=1;" parent="1" source="HsoYf9CAcILcmxsVDy11-96" target="HsoYf9CAcILcmxsVDy11-87" edge="1">
                    <mxGeometry relative="1" as="geometry"/>
                </mxCell>
                <mxCell id="HsoYf9CAcILcmxsVDy11-96" value="Repair" style="whiteSpace=wrap;html=1;strokeWidth=2;" parent="1" vertex="1">
                    <mxGeometry x="1260" y="610" width="120" height="60" as="geometry"/>
                </mxCell>
                <mxCell id="HsoYf9CAcILcmxsVDy11-108" style="edgeStyle=orthogonalEdgeStyle;rounded=0;orthogonalLoop=1;jettySize=auto;html=1;entryX=0.25;entryY=1;entryDx=0;entryDy=0;" parent="1" source="HsoYf9CAcILcmxsVDy11-105" target="HsoYf9CAcILcmxsVDy11-5" edge="1">
                    <mxGeometry relative="1" as="geometry"/>
                </mxCell>
                <mxCell id="HsoYf9CAcILcmxsVDy11-105" value="Login &lt;br&gt;Checker" style="rounded=1;whiteSpace=wrap;html=1;absoluteArcSize=1;arcSize=14;strokeWidth=2;" parent="1" vertex="1">
                    <mxGeometry x="470" y="315" width="80" height="82.5" as="geometry"/>
                </mxCell>
                <mxCell id="HsoYf9CAcILcmxsVDy11-117" value="Success" style="rounded=0;whiteSpace=wrap;html=1;fillColor=#d5e8d4;strokeColor=#82b366;fontColor=#000000;" parent="1" vertex="1">
                    <mxGeometry x="835" y="230" width="60" height="30" as="geometry"/>
                </mxCell>
                <mxCell id="HsoYf9CAcILcmxsVDy11-120" value="" style="edgeStyle=orthogonalEdgeStyle;rounded=0;orthogonalLoop=1;jettySize=auto;html=1;" parent="1" source="HsoYf9CAcILcmxsVDy11-118" target="HsoYf9CAcILcmxsVDy11-119" edge="1">
                    <mxGeometry relative="1" as="geometry"/>
                </mxCell>
                <mxCell id="HsoYf9CAcILcmxsVDy11-124" style="edgeStyle=orthogonalEdgeStyle;rounded=0;orthogonalLoop=1;jettySize=auto;html=1;entryX=0.5;entryY=0;entryDx=0;entryDy=0;" parent="1" source="HsoYf9CAcILcmxsVDy11-118" target="HsoYf9CAcILcmxsVDy11-122" edge="1">
                    <mxGeometry relative="1" as="geometry"/>
                </mxCell>
                <mxCell id="HsoYf9CAcILcmxsVDy11-126" style="edgeStyle=orthogonalEdgeStyle;rounded=0;orthogonalLoop=1;jettySize=auto;html=1;entryX=0.5;entryY=0;entryDx=0;entryDy=0;" parent="1" source="HsoYf9CAcILcmxsVDy11-118" target="HsoYf9CAcILcmxsVDy11-125" edge="1">
                    <mxGeometry relative="1" as="geometry"/>
                </mxCell>
                <mxCell id="HsoYf9CAcILcmxsVDy11-118" value="&lt;br&gt;From&lt;br&gt;&amp;nbsp;Firebase" style="strokeWidth=2;html=1;shape=mxgraph.flowchart.database;whiteSpace=wrap;" parent="1" vertex="1">
                    <mxGeometry x="1120" y="35" width="80" height="80" as="geometry"/>
                </mxCell>
                <mxCell id="HsoYf9CAcILcmxsVDy11-121" style="edgeStyle=orthogonalEdgeStyle;rounded=0;orthogonalLoop=1;jettySize=auto;html=1;entryX=0.933;entryY=-0.017;entryDx=0;entryDy=0;entryPerimeter=0;" parent="1" source="HsoYf9CAcILcmxsVDy11-119" target="HsoYf9CAcILcmxsVDy11-13" edge="1">
                    <mxGeometry relative="1" as="geometry"/>
                </mxCell>
                <mxCell id="HsoYf9CAcILcmxsVDy11-119" value="Vehicle &lt;br&gt;List" style="shape=parallelogram;perimeter=parallelogramPerimeter;whiteSpace=wrap;html=1;fixedSize=1;strokeWidth=2;" parent="1" vertex="1">
                    <mxGeometry x="860" y="45" width="120" height="60" as="geometry"/>
                </mxCell>
                <mxCell id="HsoYf9CAcILcmxsVDy11-123" value="" style="edgeStyle=orthogonalEdgeStyle;rounded=0;orthogonalLoop=1;jettySize=auto;html=1;" parent="1" source="HsoYf9CAcILcmxsVDy11-122" target="HsoYf9CAcILcmxsVDy11-53" edge="1">
                    <mxGeometry relative="1" as="geometry"/>
                </mxCell>
                <mxCell id="HsoYf9CAcILcmxsVDy11-122" value="Vehicle &lt;br&gt;Information" style="shape=parallelogram;perimeter=parallelogramPerimeter;whiteSpace=wrap;html=1;fixedSize=1;strokeWidth=2;" parent="1" vertex="1">
                    <mxGeometry x="1000" y="225" width="120" height="60" as="geometry"/>
                </mxCell>
                <mxCell id="HsoYf9CAcILcmxsVDy11-127" style="edgeStyle=orthogonalEdgeStyle;rounded=0;orthogonalLoop=1;jettySize=auto;html=1;entryX=0.5;entryY=0;entryDx=0;entryDy=0;" parent="1" source="HsoYf9CAcILcmxsVDy11-125" target="HsoYf9CAcILcmxsVDy11-53" edge="1">
                    <mxGeometry relative="1" as="geometry"/>
                </mxCell>
                <mxCell id="HsoYf9CAcILcmxsVDy11-125" value="Repair List" style="shape=parallelogram;perimeter=parallelogramPerimeter;whiteSpace=wrap;html=1;fixedSize=1;strokeWidth=2;" parent="1" vertex="1">
                    <mxGeometry x="1150" y="225" width="120" height="60" as="geometry"/>
                </mxCell>
            </root>
        </mxGraphModel>
    </diagram>
</mxfile>